<?xml version="1.0" encoding="utf-8"?>
<!-- Generator: Adobe Illustrator 16.0.2, SVG Export Plug-In . SVG Version: 6.00 Build 0)  -->
<!DOCTYPE svg PUBLIC "-//W3C//DTD SVG 1.1//EN" "http://www.w3.org/Graphics/SVG/1.1/DTD/svg11.dtd">
<svg version="1.1" id="Layer_1" xmlns="http://www.w3.org/2000/svg" xmlns:xlink="http://www.w3.org/1999/xlink" x="0px" y="0px"
	 width="300px" height="108.672px" viewBox="0 0 300 108.672" enable-background="new 0 0 300 108.672" xml:space="preserve">
<g>
	<path d="M145.953,60.299h-0.569c-3.971,0-7.432-1.491-10.378-4.482c-2.95-2.989-4.422-6.469-4.422-10.442
		c0-3.972,1.462-7.412,4.388-10.318c2.928-2.906,6.545-4.359,10.852-4.359c4.306,0,8.009,1.712,11.103,5.143L137.23,55.283
		c2.718,2.174,5.332,3.262,7.841,3.262c2.511,0,4.756-0.572,6.741-1.727c1.984-1.146,3.629-2.684,4.922-4.609v3.201
		C153.768,58.67,150.174,60.299,145.953,60.299z M145.291,32.454c-3.325,0-6.272,1.284-8.843,3.856
		c-2.573,2.572-3.858,5.529-3.858,8.876s1.108,6.269,3.325,8.782l18.252-18.128C151.57,33.58,148.614,32.454,145.291,32.454z"/>
	<path d="M191.047,31.324v28.223h-2.009v-7.021c-1.169,2.381-2.928,4.263-5.268,5.642c-2.343,1.38-4.85,2.073-7.528,2.073
		c-4.099,0-7.61-1.452-10.536-4.359c-2.926-2.908-4.392-6.39-4.392-10.442c0-4.057,1.466-7.541,4.392-10.446
		s6.438-4.359,10.536-4.359c2.679,0,5.239,0.709,7.687,2.133c2.445,1.422,4.148,3.302,5.109,5.642v-7.084H191.047z M163.322,45.5
		c0,3.51,1.287,6.553,3.857,9.125c2.572,2.57,5.624,3.859,9.156,3.859c3.536,0,6.556-1.289,9.065-3.859
		c2.509-2.572,3.763-5.625,3.763-9.156c0-3.534-1.266-6.597-3.793-9.19c-2.532-2.59-5.553-3.889-9.064-3.889
		c-3.513,0-6.555,1.31-9.127,3.921C164.609,38.924,163.322,41.985,163.322,45.5z"/>
	<path d="M210.7,32.389c-2.215,0-4.168,0.837-5.862,2.508c-1.689,1.677-2.54,3.617-2.54,5.837v18.813h-2.004V31.324h2.004v4.203
		c0.757-1.422,1.924-2.593,3.513-3.511c1.592-0.925,3.366-1.383,5.333-1.383c1.964,0,3.846,0.67,5.644,2.005v2.512
		C214.946,33.312,212.917,32.389,210.7,32.389z"/>
	<path d="M233.938,58.167v1.757c-2.967,0-5.5-0.994-7.587-2.979c-2.094-1.984-3.138-4.524-3.138-7.618V19.969h2.006v11.417h8.654
		v1.756h-8.654v16.184c0,2.548,0.85,4.662,2.545,6.332C229.451,57.33,231.515,58.167,233.938,58.167z"/>
	<path d="M242.686,59.547h-2.006V12.571h2.006v24.211c2.087-4.101,5.71-6.149,10.85-6.149c3.516,0,6.47,1.214,8.874,3.641
		c2.407,2.423,3.61,5.37,3.61,8.84v16.432h-2.013V43.115c0-2.926-1.023-5.446-3.066-7.556c-2.052-2.112-4.518-3.169-7.405-3.169
		s-5.415,1.067-7.588,3.203c-2.178,2.129-3.262,4.636-3.262,7.522V59.547z"/>
	<path d="M299.36,31.324v28.223h-2.008v-7.021c-1.177,2.381-2.93,4.263-5.272,5.642c-2.338,1.38-4.849,2.073-7.525,2.073
		c-4.101,0-7.606-1.452-10.536-4.359c-2.93-2.908-4.392-6.39-4.392-10.442c0-4.057,1.462-7.541,4.392-10.446
		s6.436-4.359,10.536-4.359c2.677,0,5.236,0.709,7.687,2.133c2.442,1.422,4.146,3.302,5.111,5.642v-7.084H299.36z M271.636,45.5
		c0,3.51,1.282,6.553,3.854,9.125c2.574,2.57,5.625,3.859,9.158,3.859c3.534,0,6.556-1.289,9.064-3.859
		c2.51-2.572,3.761-5.625,3.761-9.156c0-3.534-1.263-6.597-3.792-9.19c-2.532-2.59-5.551-3.889-9.065-3.889
		c-3.513,0-6.552,1.31-9.126,3.921C272.918,38.924,271.636,41.985,271.636,45.5z"/>
	<g>
		<path d="M131.637,83.651c0-0.896,0.157-1.782,0.471-2.666c0.313-0.887,0.77-1.678,1.369-2.376c0.6-0.697,1.339-1.261,2.217-1.701
			c0.878-0.438,1.873-0.66,2.99-0.66c1.324,0,2.452,0.298,3.386,0.902c0.935,0.598,1.63,1.377,2.092,2.338l-1.171,0.711
			c-0.239-0.487-0.522-0.898-0.858-1.231c-0.335-0.335-0.698-0.609-1.087-0.816c-0.39-0.211-0.795-0.356-1.212-0.445
			c-0.419-0.095-0.83-0.141-1.232-0.141c-0.894,0-1.681,0.183-2.364,0.539c-0.685,0.363-1.258,0.84-1.726,1.427
			c-0.467,0.586-0.819,1.242-1.057,1.975c-0.235,0.733-0.353,1.473-0.353,2.228c0,0.82,0.142,1.606,0.428,2.363
			c0.285,0.751,0.675,1.42,1.17,1.994c0.495,0.579,1.082,1.044,1.757,1.384c0.675,0.34,1.411,0.51,2.204,0.51
			c0.418,0,0.848-0.052,1.286-0.158c0.44-0.101,0.865-0.27,1.276-0.498c0.411-0.229,0.791-0.521,1.14-0.856
			c0.348-0.346,0.641-0.756,0.879-1.244l1.211,0.629c-0.237,0.551-0.571,1.044-1.002,1.472c-0.433,0.421-0.914,0.779-1.444,1.073
			c-0.529,0.293-1.091,0.516-1.683,0.673c-0.592,0.147-1.174,0.223-1.745,0.223c-1.019,0-1.952-0.215-2.803-0.661
			c-0.852-0.446-1.583-1.032-2.195-1.747c-0.613-0.715-1.09-1.536-1.432-2.446C131.807,85.527,131.637,84.597,131.637,83.651z"/>
		<path d="M154.426,91.28c-1.031,0-1.976-0.211-2.831-0.633c-0.86-0.429-1.595-0.996-2.209-1.696
			c-0.612-0.703-1.087-1.512-1.421-2.415c-0.334-0.902-0.501-1.834-0.501-2.784c0-0.984,0.179-1.935,0.534-2.837
			c0.354-0.91,0.847-1.713,1.474-2.405c0.627-0.698,1.366-1.254,2.216-1.664c0.851-0.411,1.768-0.617,2.76-0.617
			c1.032,0,1.975,0.223,2.834,0.657c0.856,0.439,1.59,1.015,2.193,1.724c0.606,0.71,1.078,1.52,1.413,2.415
			c0.334,0.898,0.498,1.817,0.498,2.751c0,0.99-0.176,1.936-0.531,2.843c-0.354,0.902-0.844,1.7-1.463,2.398
			c-0.621,0.686-1.355,1.237-2.207,1.647C156.335,91.074,155.417,91.28,154.426,91.28z M148.926,83.752
			c0,0.81,0.135,1.588,0.399,2.333c0.264,0.744,0.639,1.408,1.128,1.987c0.488,0.581,1.064,1.039,1.733,1.379
			c0.671,0.345,1.419,0.517,2.239,0.517c0.838,0,1.595-0.184,2.277-0.547c0.685-0.363,1.263-0.837,1.735-1.424
			c0.474-0.581,0.843-1.249,1.101-1.988c0.258-0.731,0.387-1.489,0.387-2.257c0-0.804-0.138-1.583-0.41-2.329
			c-0.27-0.75-0.65-1.406-1.138-1.974c-0.49-0.57-1.067-1.028-1.735-1.373c-0.668-0.34-1.407-0.511-2.217-0.511
			c-0.838,0-1.597,0.176-2.28,0.534c-0.681,0.356-1.261,0.826-1.732,1.412c-0.476,0.582-0.842,1.25-1.1,1.982
			C149.055,82.239,148.926,82.99,148.926,83.752z"/>
		<path d="M167.22,79.05v12.126h-1.442V76.334h1.132l9.827,12.354V76.357h1.442v14.818h-1.259L167.22,79.05z"/>
		<path d="M192.224,79.114c-0.42-0.475-0.976-0.856-1.683-1.149c-0.7-0.294-1.492-0.439-2.372-0.439
			c-1.325,0-2.286,0.246-2.885,0.739c-0.598,0.496-0.896,1.166-0.896,2.018c0,0.449,0.075,0.813,0.24,1.101
			c0.158,0.286,0.406,0.533,0.75,0.739c0.341,0.212,0.774,0.392,1.296,0.545c0.522,0.158,1.138,0.305,1.851,0.456
			c0.794,0.172,1.509,0.359,2.135,0.559c0.624,0.2,1.163,0.458,1.608,0.774c0.446,0.316,0.786,0.696,1.023,1.149
			c0.237,0.449,0.354,1.013,0.354,1.682c0,0.687-0.133,1.278-0.396,1.777c-0.267,0.497-0.637,0.92-1.108,1.255
			c-0.472,0.34-1.037,0.579-1.691,0.743c-0.656,0.159-1.366,0.234-2.134,0.234c-2.328,0-4.315-0.715-5.96-2.15l0.712-1.191
			c0.542,0.575,1.274,1.062,2.192,1.454c0.923,0.398,1.947,0.599,3.073,0.599c1.19,0,2.116-0.212,2.784-0.638
			c0.668-0.423,1.004-1.075,1.004-1.936c0-0.458-0.095-0.852-0.282-1.161c-0.191-0.312-0.473-0.586-0.85-0.816
			c-0.376-0.228-0.845-0.427-1.41-0.591c-0.563-0.171-1.217-0.34-1.954-0.505c-0.782-0.182-1.466-0.37-2.049-0.568
			c-0.586-0.193-1.079-0.435-1.477-0.728c-0.396-0.294-0.695-0.646-0.897-1.057c-0.2-0.409-0.305-0.914-0.305-1.517
			c0-0.68,0.128-1.29,0.389-1.829c0.258-0.535,0.619-0.98,1.089-1.338c0.464-0.352,1.022-0.628,1.671-0.814
			c0.65-0.188,1.363-0.282,2.146-0.282c0.974,0,1.847,0.147,2.621,0.452c0.774,0.298,1.476,0.716,2.099,1.26L192.224,79.114z"/>
		<path d="M203.871,89.968c0.933,0,1.713-0.184,2.33-0.535c0.619-0.356,1.112-0.825,1.485-1.407
			c0.367-0.574,0.626-1.231,0.772-1.971c0.146-0.738,0.22-1.481,0.22-2.238v-7.482h1.463v7.482c0,1.003-0.113,1.957-0.331,2.855
			c-0.229,0.896-0.586,1.688-1.079,2.374c-0.494,0.68-1.137,1.227-1.935,1.63c-0.795,0.406-1.765,0.604-2.905,0.604
			c-1.187,0-2.179-0.211-2.969-0.633c-0.792-0.429-1.438-0.991-1.924-1.688c-0.487-0.691-0.835-1.489-1.043-2.381
			c-0.212-0.891-0.315-1.813-0.315-2.762v-7.482h1.439v7.482c0,0.78,0.077,1.543,0.232,2.28c0.153,0.739,0.416,1.396,0.786,1.964
			c0.366,0.57,0.858,1.032,1.475,1.379C202.183,89.791,202.951,89.968,203.871,89.968z"/>
		<path d="M215.223,91.176V76.334h1.442v13.544h8.59v1.298H215.223z"/>
		<path d="M237.298,77.631h-5.286v13.545h-1.463V77.631h-5.294v-1.297h12.043V77.631z"/>
		<path d="M238.096,91.176l6.209-14.842h1.188l6.216,14.842h-1.572l-1.92-4.64h-6.673l-1.902,4.64H238.096z M244.908,78.046
			l-3.051,7.341h6.021L244.908,78.046z"/>
		<path d="M256.869,79.05v12.126h-1.442V76.334h1.128l9.828,12.354V76.357h1.439v14.818h-1.252L256.869,79.05z"/>
		<path d="M272.194,83.651c0-0.896,0.154-1.782,0.471-2.666c0.314-0.887,0.771-1.678,1.366-2.376
			c0.602-0.697,1.341-1.261,2.217-1.701c0.88-0.438,1.879-0.66,2.994-0.66c1.317,0,2.45,0.298,3.381,0.902
			c0.937,0.598,1.634,1.377,2.092,2.338l-1.167,0.711c-0.24-0.487-0.525-0.898-0.858-1.231c-0.335-0.335-0.699-0.609-1.089-0.816
			c-0.386-0.211-0.795-0.356-1.213-0.445c-0.417-0.095-0.827-0.141-1.231-0.141c-0.895,0-1.681,0.183-2.365,0.539
			c-0.681,0.363-1.255,0.84-1.724,1.427c-0.467,0.586-0.818,1.242-1.054,1.975c-0.24,0.733-0.354,1.473-0.354,2.228
			c0,0.82,0.143,1.606,0.424,2.363c0.284,0.751,0.679,1.42,1.173,1.994c0.492,0.579,1.079,1.044,1.757,1.384
			c0.674,0.34,1.411,0.51,2.201,0.51c0.422,0,0.851-0.052,1.289-0.158c0.438-0.101,0.864-0.27,1.275-0.498
			c0.41-0.229,0.792-0.521,1.137-0.856c0.353-0.346,0.644-0.756,0.884-1.244l1.208,0.629c-0.238,0.551-0.568,1.044-1.001,1.472
			c-0.434,0.421-0.914,0.779-1.442,1.073c-0.532,0.293-1.09,0.516-1.681,0.673c-0.597,0.147-1.181,0.223-1.751,0.223
			c-1.015,0-1.946-0.215-2.8-0.661s-1.58-1.032-2.196-1.747c-0.613-0.715-1.09-1.536-1.434-2.446
			C272.366,85.527,272.194,84.597,272.194,83.651z"/>
		<path d="M288.648,76.334l4.869,7.985l4.894-7.985H300l-5.77,9.323v5.519h-1.44v-5.559l-5.733-9.283H288.648z"/>
	</g>
	<g>
		<defs>
			<circle id="SVGID_1_" cx="54.655" cy="55.018" r="53.655"/>
		</defs>
		<clipPath id="SVGID_2_">
			<use xlink:href="#SVGID_1_"  overflow="visible"/>
		</clipPath>
		<g clip-path="url(#SVGID_2_)">
			<g>
				<polygon fill="#339944" stroke="#339944" stroke-width="0.708" stroke-miterlimit="10" points="95.223,92.97 95.368,60.508 
					62.845,41.784 47.083,50.674 46.641,49.891 62.851,40.749 96.27,59.989 96.121,92.974 95.223,92.97 				"/>
			</g>
			<g>
				<polygon fill="#339944" stroke="#339944" stroke-width="0.708" stroke-miterlimit="10" points="71.389,74.974 71.389,55.914 
					54.527,46.199 54.977,45.419 72.291,55.395 72.291,74.974 71.389,74.974 				"/>
			</g>
			<g>
				<polygon fill="#339944" stroke="#339944" stroke-width="0.708" stroke-miterlimit="10" points="-1.863,71.679 -1.425,70.899 
					31.07,89.111 63.397,70.185 63.397,51.184 64.296,51.184 64.296,70.701 31.08,90.143 -1.863,71.679 				"/>
			</g>
			<g>
				<polygon fill="#339944" stroke="#339944" stroke-width="0.708" stroke-miterlimit="10" points="46.413,60.852 46.413,41.006 
					63.222,31.289 63.67,32.065 47.311,41.527 47.311,60.852 46.413,60.852 				"/>
			</g>
			<g>
				<polygon fill="#339944" stroke="#339944" stroke-width="0.708" stroke-miterlimit="10" points="-2.921,42.056 -2.471,41.276 
					13.488,50.534 54.854,25.959 96.219,49.938 112.549,40.335 112.549,40.335 113.006,41.111 96.22,50.98 54.857,27.001 
					13.492,51.58 -2.921,42.056 				"/>
			</g>
			<g>
				<polygon fill="#339944" stroke="#339944" stroke-width="0.708" stroke-miterlimit="10" points="38.618,113.655 38.618,94.968 
					79.185,69.989 79.185,21.236 95.979,10.513 96.46,11.272 80.083,21.728 80.083,70.494 39.517,95.473 39.517,113.655 
					39.519,113.655 38.618,113.655 				"/>
			</g>
			<g>
				<path fill="#339944" stroke="#339944" stroke-width="0.708" stroke-miterlimit="10" d="M39.302,104.993L39.302,104.993
					L39.302,104.993L39.302,104.993L39.302,104.993z M38.836,104.228l16.007-9.729l17.216,9.534l-0.435,0.786l-16.757-9.28
					l-15.564,9.455L38.836,104.228L38.836,104.228z"/>
			</g>
			<g>
				<polygon fill="#339944" stroke="#339944" stroke-width="0.708" stroke-miterlimit="10" points="27.444,120.163 54.843,103.692 
					79.845,117.378 84.645,120.004 84.213,120.796 79.413,118.17 54.866,104.73 27.908,120.931 27.444,120.163 				"/>
			</g>
			<g>
				<polygon fill="#339944" stroke="#339944" stroke-width="0.708" stroke-miterlimit="10" points="79.583,118.197 79.583,99.372 
					95.574,89.046 95.574,89.046 96.062,89.803 80.482,99.865 80.482,118.197 79.583,118.197 				"/>
			</g>
			<g>
				<polygon fill="#339944" stroke="#339944" stroke-width="0.708" stroke-miterlimit="10" points="71.389,113.402 71.389,95.272 
					29.825,70.295 29.825,21.346 3.278,6.289 3.721,5.506 30.726,20.823 30.726,69.786 72.291,94.769 72.291,113.402 
					71.389,113.402 				"/>
			</g>
			<g>
				<polygon fill="#339944" stroke="#339944" stroke-width="0.708" stroke-miterlimit="10" points="30.045,60.839 30.507,60.064 
					46.668,69.72 63.826,60.058 64.266,60.84 46.655,70.764 30.045,60.839 				"/>
			</g>
			<g>
				<polygon fill="#339944" stroke="#339944" stroke-width="0.708" stroke-miterlimit="10" points="38.119,56.114 38.119,16.835 
					67.067,-0.988 67.537,-0.221 39.019,17.338 39.019,55.594 55.479,65.033 55.033,65.811 38.119,56.114 				"/>
			</g>
			<g>
				<polygon fill="#339944" stroke="#339944" stroke-width="0.708" stroke-miterlimit="10" points="71.588,36.458 71.588,17.241 
					42.31,-0.355 42.773,-1.124 72.49,16.732 72.49,36.458 72.49,36.458 71.588,36.458 				"/>
			</g>
			<g>
				<path fill="#339944" stroke="#339944" stroke-width="0.708" stroke-miterlimit="10" d="M38.701,26.864h0.001l0,0H38.701
					L38.701,26.864z M38.237,26.096l16.407-9.928l17.415,9.718l-0.438,0.783l-16.957-9.462l-15.962,9.657L38.237,26.096
					L38.237,26.096z"/>
			</g>
			<g>
				<polygon fill="#339944" stroke="#339944" stroke-width="0.708" stroke-miterlimit="10" points="63.814,80.422 64.279,79.652 
					79.837,89.1 108.023,72.406 108.481,73.18 79.829,90.147 63.814,80.422 				"/>
			</g>
			<g>
				<polygon fill="#339944" stroke="#339944" stroke-width="0.708" stroke-miterlimit="10" points="13.439,98.216 13.439,60.389 
					29.851,50.872 30.302,51.646 14.339,60.906 14.34,98.216 13.439,98.216 				"/>
			</g>
			<g>
				<polygon fill="#339944" stroke="#339944" stroke-width="0.708" stroke-miterlimit="10" points="21.434,75.103 21.434,56.017 
					22.332,56.017 22.332,74.575 39.639,84.303 39.639,84.303 39.198,85.082 21.434,75.103 				"/>
			</g>
			<g>
				<polygon fill="#339944" stroke="#339944" stroke-width="0.708" stroke-miterlimit="10" points="30.026,118.749 30.026,99.471 
					5.348,84.937 5.348,84.937 5.805,84.163 30.925,98.961 30.925,118.749 30.026,118.749 				"/>
			</g>
			<g>
				<polygon fill="#339944" stroke="#339944" stroke-width="0.708" stroke-miterlimit="10" points="5.445,75.368 5.445,56.517 
					-15.399,44.793 -14.958,44.008 6.348,55.99 6.348,75.368 5.445,75.368 				"/>
			</g>
			<g>
				<polygon fill="#339944" stroke="#339944" stroke-width="0.708" stroke-miterlimit="10" points="5.053,45.883 21.234,35.425 
					21.234,16.243 22.133,16.243 22.133,35.916 5.541,46.639 5.541,46.639 5.053,45.883 				"/>
			</g>
			<g>
				<polygon fill="#339944" stroke="#339944" stroke-width="0.708" stroke-miterlimit="10" points="-15.124,48.481 13.042,30.825 
					13.042,3.3 13.94,3.3 13.94,31.324 -14.646,49.24 -15.124,48.481 				"/>
			</g>
			<g>
				<polygon fill="#339944" stroke="#339944" stroke-width="0.708" stroke-miterlimit="10" points="71.653,84.414 87.478,74.488 
					87.578,55.951 88.475,55.957 88.376,74.985 72.127,85.176 71.653,84.414 				"/>
			</g>
			<g>
				<polygon fill="#339944" stroke="#339944" stroke-width="0.708" stroke-miterlimit="10" points="86.951,36.057 86.951,16.391 
					87.852,16.391 87.852,35.538 104.635,45.226 104.188,46.003 86.951,36.057 				"/>
			</g>
			<g>
				<polygon fill="#339944" stroke="#339944" stroke-width="0.708" stroke-miterlimit="10" points="95.194,31.108 95.194,11.668 
					96.095,11.668 96.095,30.592 112.729,40.279 112.279,41.057 95.194,31.108 				"/>
			</g>
			<g>
				<polygon fill="#339944" stroke="#339944" stroke-width="0.708" stroke-miterlimit="10" points="103.562,80.134 103.562,55.809 
					111.204,50.916 111.204,50.916 111.69,51.673 104.461,56.3 104.461,80.134 103.562,80.134 				"/>
			</g>
			<g>
				<polygon fill="#339944" stroke="#339944" stroke-width="0.708" stroke-miterlimit="10" points="22.554,8.171 17.67,5.493 
					18.102,4.704 22.986,7.381 30.261,11.371 51.718,-2.075 52.196,-1.317 30.292,12.415 22.554,8.171 				"/>
			</g>
			<g>
				<polygon fill="#339944" stroke="#339944" stroke-width="0.708" stroke-miterlimit="10" points="58.41,-0.418 58.89,-1.178 
					78.74,11.366 91.092,4.013 91.551,4.787 78.725,12.421 58.41,-0.418 				"/>
			</g>
		</g>
	</g>
</g>
</svg>
