<?xml version="1.0" encoding="utf-8"?>
<!-- Generator: Adobe Illustrator 16.0.2, SVG Export Plug-In . SVG Version: 6.00 Build 0)  -->
<!DOCTYPE svg PUBLIC "-//W3C//DTD SVG 1.1//EN" "http://www.w3.org/Graphics/SVG/1.1/DTD/svg11.dtd">
<svg version="1.1" id="Layer_1" xmlns="http://www.w3.org/2000/svg" xmlns:xlink="http://www.w3.org/1999/xlink" x="0px" y="0px"
	 width="169px" height="169px" viewBox="0 0 169 169" enable-background="new 0 0 169 169" xml:space="preserve">
<g>
	<defs>
		<path id="SVGID_1_" d="M164.234,84.501c0,44.18-35.812,79.999-79.997,79.999c-44.187,0-80.003-35.818-80.003-79.999
			C4.234,40.314,40.05,4.5,84.237,4.5C128.423,4.5,164.234,40.314,164.234,84.501z"/>
	</defs>
	<clipPath id="SVGID_2_">
		<use xlink:href="#SVGID_1_"  overflow="visible"/>
	</clipPath>
	<path clip-path="url(#SVGID_2_)" fill="none" stroke="#339944" stroke-width="3.8095" stroke-miterlimit="10" d="M108.222,112.384
		c0,8.327-10.224,15.079-22.834,15.079H70.326l0.637,22.629l-27.275-22.629H12.143c-12.608,0-22.831-6.752-22.831-15.079V63.992
		c0-8.334,10.223-15.092,22.831-15.092h73.245c12.61,0,22.834,6.757,22.834,15.092V112.384z"/>
	<path clip-path="url(#SVGID_2_)" fill="#339944" stroke="#339944" stroke-width="3.8095" stroke-miterlimit="10" d="M21.257,89.809
		c0,2.438-1.971,4.416-4.408,4.416c-2.435,0-4.415-1.978-4.415-4.416c0-2.429,1.979-4.406,4.415-4.406
		C19.286,85.402,21.257,87.38,21.257,89.809z"/>
	<path clip-path="url(#SVGID_2_)" fill="#339944" stroke="#339944" stroke-width="3.8095" stroke-miterlimit="10" d="M44.085,89.809
		c0,2.438-1.975,4.416-4.409,4.416c-2.438,0-4.414-1.978-4.414-4.416c0-2.429,1.976-4.406,4.414-4.406
		C42.11,85.402,44.085,87.38,44.085,89.809z"/>
	<path clip-path="url(#SVGID_2_)" fill="#339944" stroke="#339944" stroke-width="3.8095" stroke-miterlimit="10" d="M68.412,89.809
		c0,2.438-1.975,4.416-4.411,4.416c-2.439,0-4.411-1.978-4.411-4.416c0-2.429,1.971-4.406,4.411-4.406
		C66.437,85.402,68.412,87.38,68.412,89.809z"/>
	<path clip-path="url(#SVGID_2_)" fill="none" stroke="#339944" stroke-width="3.8095" stroke-miterlimit="10" d="M90.158,68.616
		c0,8.329,10.228,15.093,22.832,15.093h15.058l-0.632,22.615l27.272-22.615h31.547c12.609,0,22.828-6.764,22.828-15.093V20.225
		c0-8.333-10.219-15.086-22.828-15.086H112.99c-12.604,0-22.832,6.754-22.832,15.086V68.616z"/>
	<use xlink:href="#SVGID_1_"  overflow="visible" fill="none" stroke="#339944" stroke-width="3.8095" stroke-miterlimit="10"/>
</g>
</svg>
