<?xml version="1.0" encoding="utf-8"?>
<!-- Generator: Adobe Illustrator 16.0.2, SVG Export Plug-In . SVG Version: 6.00 Build 0)  -->
<!DOCTYPE svg PUBLIC "-//W3C//DTD SVG 1.1//EN" "http://www.w3.org/Graphics/SVG/1.1/DTD/svg11.dtd">
<svg version="1.1" id="Layer_1" xmlns="http://www.w3.org/2000/svg" xmlns:xlink="http://www.w3.org/1999/xlink" x="0px" y="0px"
	 width="169px" height="169px" viewBox="0 0 169 169" enable-background="new 0 0 169 169" xml:space="preserve">
<g>
	<defs>
		<path id="SVGID_1_" d="M1.203,84.607c0,46.396,37.605,84.01,84.002,84.01c46.394,0,83.998-37.613,83.998-84.01
			c0-46.388-37.604-83.993-83.998-83.993C38.808,0.614,1.203,38.219,1.203,84.607z"/>
	</defs>
	<clipPath id="SVGID_2_">
		<use xlink:href="#SVGID_1_"  overflow="visible"/>
	</clipPath>
	<g clip-path="url(#SVGID_2_)">
		<path fill="none" stroke="#339944" stroke-width="4" stroke-miterlimit="10" d="M23.897,155.668
			c22.046-19.063,19.745-64.766,19.745-64.766c0-23.355,18.937-42.292,42.289-42.292c23.358,0,42.287,18.937,42.287,42.292
			c0,0,0,56.609-19.125,85.518"/>
		<path fill="none" stroke="#339944" stroke-width="4" stroke-miterlimit="10" d="M16.561,147.117
			c17.199-17.678,15.594-56.639,15.594-56.639c0-29.723,24.091-53.814,53.809-53.814c29.712,0,53.804,24.091,53.804,53.814
			c0,0,0,54.748-17.109,80.928"/>
		<path fill="none" stroke="#339944" stroke-width="4" stroke-miterlimit="10" d="M11.389,133.496
			c8.595-14.33,8.247-42.941,8.247-42.941c0-36.218,29.351-65.575,65.565-65.575c36.21,0,65.568,29.356,65.568,65.575
			c0,0,1.453,41.031-11.002,68.104"/>
		<path fill="none" stroke="#339944" stroke-width="4" stroke-miterlimit="10" d="M174.604,90.555
			c0-48.847-39.593-88.438-88.434-88.438c-48.838,0-88.431,39.591-88.431,88.438"/>
		<path fill="none" stroke="#339944" stroke-width="4" stroke-miterlimit="10" d="M5.175,120.682
			c4.389-15.031,3.247-29.648,3.247-29.648c0-42.607,34.533-77.146,77.139-77.146c42.602,0,76.409,34.547,77.139,77.146
			c0.228,13.266,0.007,25.736-2.581,35.256"/>
		<path fill="none" stroke="#339944" stroke-width="4" stroke-miterlimit="10" d="M33.521,163.596
			c24.843-27.711,22.275-72.133,22.275-72.133c0-16.979,13.761-30.733,30.732-30.733c16.969,0,30.731,13.754,30.731,30.733
			c0,0,0.58,20.303-4.433,43.943c-5.021,23.652-16.723,44.676-16.723,44.676"/>
		<path fill="none" stroke="#339944" stroke-width="4" stroke-miterlimit="10" d="M40.923,171.406c0,0,14.82-13.184,22.464-42.07
			c3.574-13.516,4.295-38.15,4.295-38.15c0-10.566,8.561-19.13,19.125-19.13c10.567,0,19.129,8.564,19.129,19.13
			c0,0,0.396,12.852-2.648,35.104c-4.98,36.455-25.121,61.201-25.121,61.201"/>
		<path fill="none" stroke="#339944" stroke-width="4" stroke-miterlimit="10" d="M52.583,177.154c0,0,21.118-23.924,24.893-54.699
			c2.047-16.693,2.215-30.494,2.215-30.494c0.12-4.582,3.629-8.211,7.842-8.101c4.212,0.111,7.526,3.919,7.406,8.498
			c0,0,0.042,14.906-3.326,35.635c-6.185,38.07-34.213,66.014-34.213,66.014"/>
	</g>
</g>
</svg>
