<?xml version="1.0" encoding="utf-8"?>
<!-- Generator: Adobe Illustrator 16.0.2, SVG Export Plug-In . SVG Version: 6.00 Build 0)  -->
<!DOCTYPE svg PUBLIC "-//W3C//DTD SVG 1.1//EN" "http://www.w3.org/Graphics/SVG/1.1/DTD/svg11.dtd">
<svg version="1.1" id="Layer_1" xmlns="http://www.w3.org/2000/svg" xmlns:xlink="http://www.w3.org/1999/xlink" x="0px" y="0px"
	 width="175px" height="64px" viewBox="0 0 175 64" enable-background="new 0 0 175 64" xml:space="preserve">
<g>
	<path fill="#333333" d="M84.881,34.85H84.55c-2.311,0-4.325-0.868-6.04-2.609c-1.717-1.739-2.573-3.764-2.573-6.076
		c0-2.311,0.851-4.313,2.553-6.004c1.704-1.691,3.809-2.537,6.315-2.537c2.506,0,4.662,0.997,6.46,2.993L79.805,31.931
		c1.582,1.265,3.103,1.897,4.563,1.897c1.461,0,2.768-0.333,3.922-1.004c1.155-0.668,2.112-1.563,2.864-2.683v1.862
		C89.428,33.901,87.337,34.85,84.881,34.85z M84.496,18.645c-1.935,0-3.65,0.747-5.146,2.244c-1.498,1.497-2.245,3.218-2.245,5.166
		c0,1.947,0.645,3.648,1.935,5.11L89.66,20.616C88.15,19.3,86.43,18.645,84.496,18.645z"/>
	<path fill="#333333" d="M111.123,17.988v16.423h-1.17v-4.086c-0.68,1.386-1.703,2.48-3.064,3.283
		c-1.363,0.803-2.822,1.207-4.381,1.207c-2.385,0-4.43-0.846-6.133-2.537c-1.701-1.692-2.555-3.719-2.555-6.077
		c0-2.361,0.854-4.388,2.555-6.079c1.703-1.691,3.748-2.537,6.133-2.537c1.559,0,3.049,0.413,4.473,1.242
		c1.424,0.828,2.414,1.921,2.973,3.283v-4.123H111.123z M94.988,26.237c0,2.043,0.75,3.814,2.246,5.31s3.271,2.246,5.328,2.246
		s3.814-0.75,5.275-2.246c1.459-1.496,2.189-3.273,2.189-5.328c0-2.057-0.736-3.838-2.207-5.348
		c-1.475-1.507-3.232-2.263-5.275-2.263c-2.045,0-3.814,0.762-5.311,2.282C95.738,22.41,94.988,24.191,94.988,26.237z"/>
	<path fill="#333333" d="M122.561,18.607c-1.289,0-2.426,0.487-3.412,1.459c-0.984,0.976-1.479,2.104-1.479,3.397v10.947h-1.166
		V17.988h1.166v2.446c0.441-0.827,1.119-1.509,2.045-2.043c0.926-0.538,1.959-0.805,3.104-0.805c1.143,0,2.236,0.39,3.283,1.167
		v1.462C125.031,19.144,123.85,18.607,122.561,18.607z"/>
	<path fill="#333333" d="M136.082,33.608v1.022c-1.727,0-3.201-0.578-4.414-1.733c-1.219-1.155-1.826-2.634-1.826-4.434V11.38h1.166
		v6.644h5.037v1.022h-5.037v9.418c0,1.482,0.496,2.713,1.482,3.685C133.471,33.121,134.672,33.608,136.082,33.608z"/>
	<path fill="#333333" d="M141.174,34.411h-1.168V7.075h1.168v14.089c1.213-2.386,3.322-3.579,6.313-3.579
		c2.047,0,3.766,0.707,5.164,2.119c1.402,1.41,2.102,3.125,2.102,5.145v9.562h-1.17v-9.562c0-1.703-0.598-3.169-1.785-4.397
		c-1.195-1.229-2.629-1.844-4.311-1.844c-1.68,0-3.15,0.621-4.416,1.864c-1.266,1.239-1.896,2.698-1.896,4.377V34.411z"/>
	<path fill="#333333" d="M174.154,17.988v16.423h-1.168v-4.086c-0.686,1.386-1.705,2.48-3.068,3.283
		c-1.359,0.803-2.822,1.207-4.379,1.207c-2.387,0-4.426-0.846-6.131-2.537c-1.705-1.692-2.557-3.719-2.557-6.077
		c0-2.361,0.852-4.388,2.557-6.079s3.744-2.537,6.131-2.537c1.557,0,3.047,0.413,4.473,1.242c1.422,0.828,2.414,1.921,2.975,3.283
		v-4.123H174.154z M158.021,26.237c0,2.043,0.746,3.814,2.242,5.31c1.498,1.496,3.273,2.246,5.33,2.246s3.814-0.75,5.275-2.246
		c1.459-1.496,2.188-3.273,2.188-5.328c0-2.057-0.734-3.838-2.207-5.348c-1.473-1.507-3.23-2.263-5.275-2.263
		c-2.043,0-3.813,0.762-5.311,2.282C158.768,22.41,158.021,24.191,158.021,26.237z"/>
	<g>
		<path fill="#333333" d="M76.55,48.438c0-0.521,0.091-1.037,0.274-1.551c0.182-0.517,0.448-0.977,0.796-1.383
			c0.349-0.406,0.779-0.733,1.29-0.99c0.511-0.255,1.09-0.384,1.74-0.384c0.77,0,1.427,0.173,1.97,0.524
			c0.544,0.349,0.948,0.802,1.217,1.361l-0.682,0.413c-0.139-0.283-0.304-0.522-0.499-0.717s-0.406-0.354-0.632-0.475
			c-0.227-0.123-0.463-0.207-0.706-0.259c-0.244-0.056-0.483-0.082-0.717-0.082c-0.52,0-0.978,0.106-1.375,0.313
			c-0.398,0.211-0.732,0.488-1.004,0.83c-0.272,0.341-0.477,0.723-0.615,1.149c-0.137,0.427-0.205,0.856-0.205,1.296
			c0,0.478,0.082,0.936,0.249,1.376c0.166,0.437,0.393,0.826,0.681,1.16c0.288,0.338,0.629,0.607,1.022,0.805
			c0.393,0.199,0.821,0.296,1.283,0.296c0.244,0,0.494-0.029,0.749-0.092c0.256-0.058,0.503-0.156,0.742-0.289
			s0.46-0.305,0.664-0.498c0.203-0.201,0.373-0.441,0.512-0.725l0.705,0.366c-0.138,0.32-0.333,0.607-0.583,0.857
			c-0.251,0.244-0.532,0.453-0.84,0.625c-0.308,0.17-0.635,0.299-0.979,0.391c-0.344,0.086-0.683,0.129-1.015,0.129
			c-0.593,0-1.136-0.125-1.631-0.385c-0.496-0.26-0.921-0.599-1.277-1.015c-0.357-0.416-0.634-0.895-0.833-1.423
			C76.648,49.53,76.55,48.989,76.55,48.438z"/>
		<path fill="#333333" d="M89.811,52.877c-0.6,0-1.148-0.121-1.647-0.367c-0.5-0.25-0.928-0.58-1.285-0.986
			c-0.356-0.41-0.632-0.881-0.827-1.407c-0.195-0.524-0.292-1.066-0.292-1.62c0-0.572,0.104-1.125,0.311-1.65
			c0.206-0.53,0.493-0.997,0.858-1.4c0.365-0.406,0.794-0.729,1.29-0.968c0.495-0.239,1.028-0.359,1.606-0.359
			c0.6,0,1.148,0.13,1.648,0.383c0.498,0.256,0.926,0.59,1.277,1.003s0.627,0.884,0.822,1.405c0.193,0.522,0.289,1.058,0.289,1.601
			c0,0.576-0.102,1.127-0.309,1.654c-0.207,0.525-0.49,0.99-0.852,1.396c-0.361,0.398-0.789,0.72-1.285,0.958
			C90.922,52.758,90.389,52.877,89.811,52.877z M86.611,48.497c0,0.472,0.078,0.925,0.232,1.358
			c0.153,0.433,0.372,0.819,0.656,1.157c0.284,0.338,0.619,0.604,1.008,0.803c0.391,0.199,0.826,0.298,1.303,0.298
			c0.488,0,0.93-0.105,1.326-0.318c0.398-0.211,0.734-0.486,1.01-0.828c0.275-0.338,0.49-0.726,0.641-1.157
			c0.15-0.426,0.225-0.866,0.225-1.313c0-0.468-0.08-0.921-0.238-1.355c-0.156-0.437-0.379-0.818-0.662-1.148
			c-0.285-0.332-0.621-0.598-1.01-0.799c-0.389-0.197-0.818-0.297-1.291-0.297c-0.486,0-0.928,0.103-1.326,0.311
			c-0.396,0.207-0.734,0.48-1.008,0.822c-0.277,0.338-0.49,0.727-0.64,1.153C86.686,47.617,86.611,48.054,86.611,48.497z"/>
		<path fill="#333333" d="M97.256,45.761v7.056h-0.838v-8.636h0.658l5.719,7.189v-7.175h0.84v8.622h-0.732L97.256,45.761z"/>
		<path fill="#333333" d="M111.807,45.799c-0.244-0.276-0.566-0.499-0.979-0.669c-0.408-0.171-0.869-0.256-1.381-0.256
			c-0.771,0-1.33,0.144-1.678,0.43c-0.348,0.289-0.521,0.679-0.521,1.175c0,0.261,0.043,0.473,0.139,0.641
			c0.092,0.166,0.236,0.31,0.438,0.43c0.197,0.123,0.449,0.228,0.754,0.317c0.305,0.092,0.662,0.177,1.076,0.266
			c0.463,0.1,0.879,0.209,1.242,0.324c0.363,0.117,0.678,0.267,0.938,0.451c0.258,0.184,0.457,0.405,0.594,0.669
			c0.139,0.262,0.207,0.589,0.207,0.979c0,0.398-0.076,0.744-0.23,1.033s-0.369,0.535-0.645,0.73
			c-0.275,0.197-0.604,0.338-0.984,0.434c-0.381,0.092-0.795,0.135-1.242,0.135c-1.354,0-2.512-0.416-3.469-1.25l0.416-0.693
			c0.314,0.334,0.74,0.617,1.275,0.846c0.537,0.232,1.133,0.347,1.789,0.347c0.691,0,1.23-0.123,1.619-0.371
			c0.389-0.246,0.584-0.625,0.584-1.125c0-0.267-0.055-0.497-0.164-0.676c-0.111-0.182-0.275-0.341-0.494-0.476
			c-0.219-0.132-0.492-0.248-0.82-0.344c-0.328-0.1-0.709-0.197-1.137-0.294c-0.457-0.105-0.854-0.215-1.193-0.33
			c-0.34-0.112-0.627-0.253-0.859-0.424c-0.23-0.171-0.404-0.375-0.521-0.614c-0.117-0.238-0.178-0.532-0.178-0.883
			c0-0.396,0.074-0.751,0.227-1.064c0.15-0.312,0.359-0.57,0.633-0.778c0.27-0.205,0.596-0.366,0.973-0.475
			c0.379-0.109,0.793-0.164,1.248-0.164c0.566,0,1.076,0.086,1.525,0.264c0.451,0.173,0.859,0.416,1.223,0.732L111.807,45.799z"/>
		<path fill="#333333" d="M118.586,52.113c0.543,0,0.996-0.105,1.355-0.31c0.361-0.207,0.646-0.48,0.865-0.818
			c0.213-0.334,0.363-0.717,0.449-1.147c0.084-0.43,0.127-0.862,0.127-1.303v-4.354h0.852v4.354c0,0.583-0.066,1.139-0.193,1.661
			c-0.133,0.521-0.34,0.982-0.627,1.382c-0.287,0.395-0.662,0.712-1.125,0.947c-0.463,0.236-1.027,0.352-1.691,0.352
			c-0.691,0-1.268-0.121-1.729-0.367c-0.461-0.25-0.836-0.576-1.119-0.982c-0.283-0.402-0.486-0.867-0.607-1.386
			c-0.123-0.518-0.184-1.055-0.184-1.606v-4.354h0.838v4.354c0,0.454,0.045,0.897,0.137,1.327c0.088,0.43,0.242,0.812,0.457,1.142
			c0.213,0.332,0.5,0.602,0.857,0.803C117.604,52.012,118.051,52.113,118.586,52.113z"/>
		<path fill="#333333" d="M125.191,52.816v-8.636h0.84v7.882h4.998v0.754H125.191z"/>
		<path fill="#333333" d="M138.037,44.936h-3.076v7.881h-0.852v-7.881h-3.08v-0.755h7.008V44.936z"/>
		<path fill="#333333" d="M138.502,52.816l3.613-8.636h0.691l3.617,8.636h-0.916l-1.117-2.699h-3.883l-1.107,2.699H138.502z
			 M142.467,45.177l-1.775,4.271h3.504L142.467,45.177z"/>
		<path fill="#333333" d="M149.428,45.761v7.056h-0.84v-8.636h0.656l5.719,7.189v-7.175h0.838v8.622h-0.729L149.428,45.761z"/>
		<path fill="#333333" d="M158.346,48.438c0-0.521,0.09-1.037,0.273-1.551c0.184-0.517,0.449-0.977,0.795-1.383
			c0.352-0.406,0.781-0.733,1.291-0.99c0.512-0.255,1.094-0.384,1.742-0.384c0.768,0,1.426,0.173,1.967,0.524
			c0.545,0.349,0.951,0.802,1.219,1.361l-0.68,0.413c-0.141-0.283-0.307-0.522-0.5-0.717c-0.195-0.194-0.406-0.354-0.633-0.475
			c-0.225-0.123-0.463-0.207-0.707-0.259c-0.242-0.056-0.48-0.082-0.717-0.082c-0.52,0-0.977,0.106-1.375,0.313
			c-0.396,0.211-0.73,0.488-1.004,0.83c-0.271,0.341-0.477,0.723-0.613,1.149c-0.139,0.427-0.205,0.856-0.205,1.296
			c0,0.478,0.082,0.936,0.246,1.376c0.166,0.437,0.395,0.826,0.684,1.16c0.285,0.338,0.627,0.607,1.021,0.805
			c0.393,0.199,0.822,0.296,1.281,0.296c0.246,0,0.494-0.029,0.75-0.092c0.256-0.058,0.502-0.156,0.742-0.289
			c0.238-0.133,0.461-0.305,0.662-0.498c0.205-0.201,0.373-0.441,0.514-0.725l0.703,0.366c-0.139,0.32-0.33,0.607-0.582,0.857
			c-0.254,0.244-0.533,0.453-0.84,0.625c-0.311,0.17-0.635,0.299-0.979,0.391c-0.348,0.086-0.688,0.129-1.02,0.129
			c-0.59,0-1.131-0.125-1.629-0.385c-0.496-0.26-0.92-0.599-1.277-1.015s-0.635-0.895-0.834-1.423
			C158.445,49.53,158.346,48.989,158.346,48.438z"/>
		<path fill="#333333" d="M167.922,44.181l2.832,4.646l2.848-4.646h0.926l-3.357,5.426v3.21h-0.838v-3.233l-3.338-5.402H167.922z"/>
	</g>
	<g>
		<defs>
			<circle id="SVGID_1_" cx="31.751" cy="31.775" r="31.224"/>
		</defs>
		<clipPath id="SVGID_2_">
			<use xlink:href="#SVGID_1_"  overflow="visible"/>
		</clipPath>
		<g clip-path="url(#SVGID_2_)">
			<g>
				<polygon fill="#333333" stroke="#333333" stroke-width="0.412" stroke-miterlimit="10" points="55.359,53.861 55.444,34.971 
					36.517,24.075 27.345,29.248 27.087,28.793 36.521,23.472 55.969,34.669 55.881,53.863 55.359,53.861 				"/>
			</g>
			<g>
				<polygon fill="#333333" stroke="#333333" stroke-width="0.412" stroke-miterlimit="10" points="41.489,43.389 41.489,32.298 
					31.677,26.644 31.938,26.19 42.014,31.995 42.014,43.389 41.489,43.389 				"/>
			</g>
			<g>
				<polygon fill="#333333" stroke="#333333" stroke-width="0.412" stroke-miterlimit="10" points="-1.139,41.472 -0.884,41.018 
					18.026,51.616 36.838,40.602 36.838,29.545 37.361,29.545 37.361,40.902 18.032,52.217 -1.139,41.472 				"/>
			</g>
			<g>
				<polygon fill="#333333" stroke="#333333" stroke-width="0.412" stroke-miterlimit="10" points="26.955,35.171 26.955,23.622 
					36.736,17.967 36.997,18.419 27.477,23.925 27.477,35.171 26.955,35.171 				"/>
			</g>
			<g>
				<polygon fill="#333333" stroke="#333333" stroke-width="0.412" stroke-miterlimit="10" points="-1.755,24.233 -1.493,23.779 
					7.794,29.167 31.866,14.866 55.938,28.819 65.442,23.232 65.442,23.232 65.708,23.683 55.939,29.426 31.869,15.472 
					7.797,29.775 -1.755,24.233 				"/>
			</g>
			<g>
				<polygon fill="#333333" stroke="#333333" stroke-width="0.412" stroke-miterlimit="10" points="22.418,65.898 22.418,55.023 
					46.025,40.488 46.025,12.117 55.799,5.877 56.08,6.319 46.548,12.403 46.548,40.782 22.941,55.318 22.941,65.898 22.943,65.898 
					22.418,65.898 				"/>
			</g>
			<g>
				<path fill="#333333" stroke="#333333" stroke-width="0.412" stroke-miterlimit="10" d="M22.816,60.857L22.816,60.857
					L22.816,60.857L22.816,60.857L22.816,60.857z M22.545,60.412l9.315-5.662l10.019,5.549l-0.253,0.457l-9.751-5.4l-9.058,5.502
					L22.545,60.412L22.545,60.412z"/>
			</g>
			<g>
				<polygon fill="#333333" stroke="#333333" stroke-width="0.412" stroke-miterlimit="10" points="15.916,69.686 31.86,60.102 
					46.41,68.064 49.203,69.594 48.952,70.055 46.158,68.525 31.874,60.705 16.186,70.133 15.916,69.686 				"/>
			</g>
			<g>
				<polygon fill="#333333" stroke="#333333" stroke-width="0.412" stroke-miterlimit="10" points="46.257,68.541 46.257,57.586 
					55.563,51.579 55.563,51.579 55.847,52.018 46.781,57.873 46.781,68.541 46.257,68.541 				"/>
			</g>
			<g>
				<polygon fill="#333333" stroke="#333333" stroke-width="0.412" stroke-miterlimit="10" points="41.489,65.752 41.489,55.201 
					17.301,40.666 17.301,12.181 1.853,3.418 2.11,2.963 17.826,11.876 17.826,40.37 42.014,54.908 42.014,65.752 41.489,65.752 
									"/>
			</g>
			<g>
				<polygon fill="#333333" stroke="#333333" stroke-width="0.412" stroke-miterlimit="10" points="17.43,35.163 17.698,34.713 
					27.103,40.331 37.088,34.709 37.344,35.164 27.095,40.939 17.43,35.163 				"/>
			</g>
			<g>
				<polygon fill="#333333" stroke="#333333" stroke-width="0.412" stroke-miterlimit="10" points="22.128,32.414 22.128,9.556 
					38.974,-0.816 39.247,-0.37 22.651,9.849 22.651,32.111 32.23,37.604 31.971,38.057 22.128,32.414 				"/>
			</g>
			<g>
				<polygon fill="#333333" stroke="#333333" stroke-width="0.412" stroke-miterlimit="10" points="41.605,20.976 41.605,9.792 
					24.567,-0.448 24.836,-0.895 42.13,9.496 42.13,20.976 42.13,20.976 41.605,20.976 				"/>
			</g>
			<g>
				<path fill="#333333" stroke="#333333" stroke-width="0.412" stroke-miterlimit="10" d="M22.466,15.393L22.466,15.393
					L22.466,15.393L22.466,15.393L22.466,15.393z M22.197,14.945l9.548-5.777l10.134,5.655l-0.255,0.456l-9.868-5.506l-9.289,5.62
					L22.197,14.945L22.197,14.945z"/>
			</g>
			<g>
				<polygon fill="#333333" stroke="#333333" stroke-width="0.412" stroke-miterlimit="10" points="37.081,46.56 37.352,46.111 
					46.405,51.61 62.808,41.895 63.075,42.345 46.401,52.219 37.081,46.56 				"/>
			</g>
			<g>
				<polygon fill="#333333" stroke="#333333" stroke-width="0.412" stroke-miterlimit="10" points="7.766,56.914 7.766,34.901 
					17.316,29.363 17.579,29.813 8.29,35.202 8.29,56.914 7.766,56.914 				"/>
			</g>
			<g>
				<polygon fill="#333333" stroke="#333333" stroke-width="0.412" stroke-miterlimit="10" points="12.418,43.464 12.418,32.357 
					12.941,32.357 12.941,43.157 23.013,48.818 23.013,48.818 22.756,49.271 12.418,43.464 				"/>
			</g>
			<g>
				<polygon fill="#333333" stroke="#333333" stroke-width="0.412" stroke-miterlimit="10" points="17.418,68.863 17.418,57.645 
					3.057,49.187 3.057,49.187 3.323,48.736 17.942,57.348 17.942,68.863 17.418,68.863 				"/>
			</g>
			<g>
				<polygon fill="#333333" stroke="#333333" stroke-width="0.412" stroke-miterlimit="10" points="3.114,43.618 3.114,32.648 
					-9.016,25.826 -8.76,25.369 3.639,32.342 3.639,43.618 3.114,43.618 				"/>
			</g>
			<g>
				<polygon fill="#333333" stroke="#333333" stroke-width="0.412" stroke-miterlimit="10" points="2.886,26.46 12.302,20.374 
					12.302,9.211 12.825,9.211 12.825,20.66 3.17,26.9 3.17,26.9 2.886,26.46 				"/>
			</g>
			<g>
				<polygon fill="#333333" stroke="#333333" stroke-width="0.412" stroke-miterlimit="10" points="-8.856,27.972 7.535,17.697 
					7.535,1.679 8.058,1.679 8.058,17.988 -8.578,28.414 -8.856,27.972 				"/>
			</g>
			<g>
				<polygon fill="#333333" stroke="#333333" stroke-width="0.412" stroke-miterlimit="10" points="41.643,48.883 50.852,43.106 
					50.91,32.319 51.432,32.322 51.375,43.396 41.919,49.326 41.643,48.883 				"/>
			</g>
			<g>
				<polygon fill="#333333" stroke="#333333" stroke-width="0.412" stroke-miterlimit="10" points="50.545,20.742 50.545,9.298 
					51.069,9.298 51.069,20.44 60.836,26.078 60.577,26.53 50.545,20.742 				"/>
			</g>
			<g>
				<polygon fill="#333333" stroke="#333333" stroke-width="0.412" stroke-miterlimit="10" points="55.342,17.862 55.342,6.549 
					55.867,6.549 55.867,17.562 65.547,23.199 65.285,23.651 55.342,17.862 				"/>
			</g>
			<g>
				<polygon fill="#333333" stroke="#333333" stroke-width="0.412" stroke-miterlimit="10" points="60.212,46.392 60.212,32.236 
					64.659,29.389 64.659,29.389 64.942,29.83 60.735,32.521 60.735,46.392 60.212,46.392 				"/>
			</g>
			<g>
				<polygon fill="#333333" stroke="#333333" stroke-width="0.412" stroke-miterlimit="10" points="13.07,4.514 10.228,2.956 
					10.479,2.497 13.322,4.054 17.555,6.376 30.042,-1.449 30.32,-1.008 17.573,6.983 13.07,4.514 				"/>
			</g>
			<g>
				<polygon fill="#333333" stroke="#333333" stroke-width="0.412" stroke-miterlimit="10" points="33.936,-0.484 34.215,-0.927 
					45.767,6.374 52.955,2.094 53.222,2.544 45.758,6.987 33.936,-0.484 				"/>
			</g>
		</g>
	</g>
</g>
</svg>
