<?xml version="1.0" encoding="utf-8"?>
<!-- Generator: Adobe Illustrator 16.0.2, SVG Export Plug-In . SVG Version: 6.00 Build 0)  -->
<!DOCTYPE svg PUBLIC "-//W3C//DTD SVG 1.1//EN" "http://www.w3.org/Graphics/SVG/1.1/DTD/svg11.dtd">
<svg version="1.1" id="Layer_1" xmlns="http://www.w3.org/2000/svg" xmlns:xlink="http://www.w3.org/1999/xlink" x="0px" y="0px"
	 width="169px" height="169px" viewBox="0 0 169 169" enable-background="new 0 0 169 169" xml:space="preserve">
<g>
	<path fill="none" stroke="#339944" stroke-width="3.9303" stroke-miterlimit="10" d="M84.777,161.028
		c31.027,0,58.569-16.92,75.892-43.069c-17.322-26.15-44.864-43.064-75.892-43.064c-31.029,0-58.573,16.914-75.894,43.064
		C26.205,144.108,53.749,161.028,84.777,161.028z"/>
	<path fill="none" stroke="#339944" stroke-width="3.9303" stroke-miterlimit="10" d="M84.777,93.973
		c31.027,0,58.569-16.92,75.892-43.069C143.347,24.75,115.805,7.839,84.777,7.839c-31.029,0-58.573,16.911-75.894,43.064
		C26.205,77.052,53.749,93.973,84.777,93.973z"/>
	
		<line fill="none" stroke="#339944" stroke-width="3.9303" stroke-miterlimit="10" x1="173.423" y1="117.962" x2="8.884" y2="117.959"/>
	<path fill="none" stroke="#339944" stroke-width="3.9303" stroke-miterlimit="10" d="M95.033,75.524"/>
	<path fill="none" stroke="#339944" stroke-width="3.9303" stroke-miterlimit="10" d="M129.086,117.959"/>
	<path fill="none" stroke="#339944" stroke-width="3.9303" stroke-miterlimit="10" d="M45.973,84.289"/>
	<path fill="none" stroke="#339944" stroke-width="3.9303" stroke-miterlimit="10" d="M71.661,117.963"/>
	<path fill="none" stroke="#339944" stroke-width="3.9303" stroke-miterlimit="10" d="M66.314,76.958"/>
	<path fill="none" stroke="#339944" stroke-width="3.9303" stroke-miterlimit="10" d="M99.652,117.959"/>
	<path fill="none" stroke="#339944" stroke-width="3.9303" stroke-miterlimit="10" d="M35.76,152.259"/>
	<path fill="none" stroke="#339944" stroke-width="3.9303" stroke-miterlimit="10" d="M63.584,115.622"/>
	<path fill="none" stroke="#339944" stroke-width="3.9303" stroke-miterlimit="10" d="M62.817,158.06"/>
	<path fill="none" stroke="#339944" stroke-width="3.9303" stroke-miterlimit="10" d="M97.721,115.625"/>
	
		<line fill="none" stroke="#339944" stroke-width="3.9303" stroke-miterlimit="10" x1="130.057" y1="117.959" x2="77.184" y2="50.619"/>
	
		<line fill="none" stroke="#339944" stroke-width="3.9303" stroke-miterlimit="10" x1="94.471" y1="117.817" x2="38.9" y2="50.764"/>
	
		<line fill="none" stroke="#339944" stroke-width="3.9303" stroke-miterlimit="10" x1="133.164" y1="78.919" x2="111.893" y2="50.905"/>
	<polyline fill="none" stroke="#339944" stroke-width="3.9303" stroke-miterlimit="10" points="160.669,50.621 0,50.619 
		-4.577,50.619 	"/>
	
		<line fill="none" stroke="#339944" stroke-width="3.9303" stroke-miterlimit="10" x1="58.287" y1="117.963" x2="36.797" y2="89.665"/>
	
		<line fill="none" stroke="#339944" stroke-width="3.9303" stroke-miterlimit="10" x1="133.023" y1="22.792" x2="111.893" y2="50.619"/>
	
		<line fill="none" stroke="#339944" stroke-width="3.9303" stroke-miterlimit="10" x1="108.569" y1="10.648" x2="77.184" y2="50.619"/>
	<line fill="none" stroke="#339944" stroke-width="3.9303" stroke-miterlimit="10" x1="75.2" y1="7.839" x2="39.883" y2="50.905"/>
	
		<line fill="none" stroke="#339944" stroke-width="3.9303" stroke-miterlimit="10" x1="58.287" y1="118.595" x2="37.122" y2="146.467"/>
	
		<line fill="none" stroke="#339944" stroke-width="3.9303" stroke-miterlimit="10" x1="94.471" y1="117.817" x2="60.852" y2="158.06"/>
	
		<line fill="none" stroke="#339944" stroke-width="3.9303" stroke-miterlimit="10" x1="130.057" y1="117.817" x2="96.446" y2="160.624"/>
</g>
<path fill="none" stroke="#339944" stroke-width="3.9303" stroke-miterlimit="10" d="M169,117.963"/>
</svg>
