<?xml version="1.0" encoding="utf-8"?>
<!-- Generator: Adobe Illustrator 16.0.2, SVG Export Plug-In . SVG Version: 6.00 Build 0)  -->
<!DOCTYPE svg PUBLIC "-//W3C//DTD SVG 1.1//EN" "http://www.w3.org/Graphics/SVG/1.1/DTD/svg11.dtd">
<svg version="1.1" id="Layer_1" xmlns="http://www.w3.org/2000/svg" xmlns:xlink="http://www.w3.org/1999/xlink" x="0px" y="0px"
	 width="64px" height="64px" viewBox="0 10 64 64" enable-background="new 0 10 64 64" xml:space="preserve">
<g>
	<g>
		<defs>
			<circle id="SVGID_1_" cx="32.361" cy="42.018" r="31.5"/>
		</defs>
		<clipPath id="SVGID_2_">
			<use xlink:href="#SVGID_1_"  overflow="visible"/>
		</clipPath>
		<g clip-path="url(#SVGID_2_)">
			<g>
				<polygon fill="#1A1A1A" stroke="#1A1A1A" stroke-width="0.4156" stroke-miterlimit="10" points="56.179,64.299 56.264,45.242 
					37.171,34.248 27.916,39.467 27.658,39.009 37.175,33.641 56.793,44.937 56.706,64.303 56.179,64.299 				"/>
			</g>
			<g>
				<polygon fill="#1A1A1A" stroke="#1A1A1A" stroke-width="0.4156" stroke-miterlimit="10" points="42.186,53.733 42.186,42.544 
					32.287,36.841 32.551,36.383 42.716,42.238 42.716,53.733 42.186,53.733 				"/>
			</g>
			<g>
				<polygon fill="#1A1A1A" stroke="#1A1A1A" stroke-width="0.4156" stroke-miterlimit="10" points="-0.819,51.799 -0.562,51.342 
					18.515,62.035 37.494,50.923 37.494,39.768 38.021,39.768 38.021,51.225 18.521,62.64 -0.819,51.799 				"/>
			</g>
			<g>
				<polygon fill="#1A1A1A" stroke="#1A1A1A" stroke-width="0.4156" stroke-miterlimit="10" points="27.522,45.442 27.522,33.792 
					37.392,28.086 37.654,28.542 28.05,34.098 28.05,45.442 27.522,45.442 				"/>
			</g>
			<g>
				<polygon fill="#1A1A1A" stroke="#1A1A1A" stroke-width="0.4156" stroke-miterlimit="10" points="-1.441,34.408 -1.177,33.95 
					8.193,39.387 32.479,24.958 56.763,39.035 66.351,33.398 66.351,33.398 66.619,33.854 56.764,39.647 32.48,25.569 8.196,40 
					-1.441,34.408 				"/>
			</g>
			<g>
				<polygon fill="#1A1A1A" stroke="#1A1A1A" stroke-width="0.4156" stroke-miterlimit="10" points="22.946,76.443 22.946,65.473 
					46.763,50.808 46.763,22.185 56.623,15.889 56.905,16.335 47.29,22.474 47.29,51.104 23.475,65.769 23.475,76.443 
					23.476,76.443 22.946,76.443 				"/>
			</g>
			<g>
				<path fill="#1A1A1A" stroke="#1A1A1A" stroke-width="0.4156" stroke-miterlimit="10" d="M23.348,71.358L23.348,71.358
					L23.348,71.358L23.348,71.358L23.348,71.358z M23.075,70.908l9.396-5.711l10.107,5.597l-0.255,0.462l-9.838-5.449l-9.138,5.552
					L23.075,70.908L23.075,70.908z"/>
			</g>
			<g>
				<polygon fill="#1A1A1A" stroke="#1A1A1A" stroke-width="0.4156" stroke-miterlimit="10" points="16.386,80.264 32.472,70.595 
					47.151,78.629 49.969,80.171 49.716,80.636 46.896,79.094 32.486,71.205 16.658,80.715 16.386,80.264 				"/>
			</g>
			<g>
				<polygon fill="#1A1A1A" stroke="#1A1A1A" stroke-width="0.4156" stroke-miterlimit="10" points="46.997,79.11 46.997,68.059 
					56.386,61.996 56.386,61.996 56.672,62.439 47.525,68.347 47.525,79.11 46.997,79.11 				"/>
			</g>
			<g>
				<polygon fill="#1A1A1A" stroke="#1A1A1A" stroke-width="0.4156" stroke-miterlimit="10" points="42.186,76.295 42.186,65.651 
					17.784,50.986 17.784,22.25 2.199,13.41 2.458,12.95 18.313,21.943 18.313,50.688 42.716,65.355 42.716,76.295 42.186,76.295 
									"/>
			</g>
			<g>
				<polygon fill="#1A1A1A" stroke="#1A1A1A" stroke-width="0.4156" stroke-miterlimit="10" points="17.914,45.435 18.185,44.98 
					27.673,50.649 37.746,44.977 38.004,45.436 27.665,51.263 17.914,45.435 				"/>
			</g>
			<g>
				<polygon fill="#1A1A1A" stroke="#1A1A1A" stroke-width="0.4156" stroke-miterlimit="10" points="22.654,42.662 22.654,19.602 
					39.649,9.137 39.925,9.588 23.182,19.896 23.182,42.356 32.846,47.897 32.583,48.354 22.654,42.662 				"/>
			</g>
			<g>
				<polygon fill="#1A1A1A" stroke="#1A1A1A" stroke-width="0.4156" stroke-miterlimit="10" points="42.303,31.122 42.303,19.84 
					25.114,9.509 25.386,9.058 42.833,19.541 42.833,31.122 42.833,31.122 42.303,31.122 				"/>
			</g>
			<g>
				<path fill="#1A1A1A" stroke="#1A1A1A" stroke-width="0.4156" stroke-miterlimit="10" d="M22.995,25.489L22.995,25.489
					L22.995,25.489L22.995,25.489L22.995,25.489z M22.723,25.039l9.633-5.829l10.223,5.706l-0.256,0.459l-9.956-5.555l-9.372,5.669
					L22.723,25.039L22.723,25.039z"/>
			</g>
			<g>
				<polygon fill="#1A1A1A" stroke="#1A1A1A" stroke-width="0.4156" stroke-miterlimit="10" points="37.74,56.933 38.013,56.481 
					47.146,62.028 63.693,52.227 63.963,52.681 47.142,62.644 37.74,56.933 				"/>
			</g>
			<g>
				<polygon fill="#1A1A1A" stroke="#1A1A1A" stroke-width="0.4156" stroke-miterlimit="10" points="8.165,67.38 8.165,45.172 
					17.799,39.584 18.065,40.038 8.692,45.476 8.693,67.38 8.165,67.38 				"/>
			</g>
			<g>
				<polygon fill="#1A1A1A" stroke="#1A1A1A" stroke-width="0.4156" stroke-miterlimit="10" points="12.858,53.81 12.858,42.604 
					13.386,42.604 13.386,53.499 23.546,59.212 23.546,59.212 23.288,59.669 12.858,53.81 				"/>
			</g>
			<g>
				<polygon fill="#1A1A1A" stroke="#1A1A1A" stroke-width="0.4156" stroke-miterlimit="10" points="17.902,79.434 17.902,68.116 
					3.414,59.583 3.414,59.583 3.683,59.129 18.431,67.817 18.431,79.434 17.902,79.434 				"/>
			</g>
			<g>
				<polygon fill="#1A1A1A" stroke="#1A1A1A" stroke-width="0.4156" stroke-miterlimit="10" points="3.471,53.966 3.471,42.898 
					-8.767,36.015 -8.508,35.554 4.001,42.589 4.001,53.966 3.471,53.966 				"/>
			</g>
			<g>
				<polygon fill="#1A1A1A" stroke="#1A1A1A" stroke-width="0.4156" stroke-miterlimit="10" points="3.241,36.655 12.74,30.515 
					12.74,19.254 13.268,19.254 13.268,30.803 3.527,37.1 3.527,37.1 3.241,36.655 				"/>
			</g>
			<g>
				<polygon fill="#1A1A1A" stroke="#1A1A1A" stroke-width="0.4156" stroke-miterlimit="10" points="-8.604,38.18 7.931,27.814 
					7.931,11.655 8.458,11.655 8.458,28.107 -8.324,38.626 -8.604,38.18 				"/>
			</g>
			<g>
				<polygon fill="#1A1A1A" stroke="#1A1A1A" stroke-width="0.4156" stroke-miterlimit="10" points="42.342,59.276 51.633,53.448 
					51.69,42.566 52.218,42.569 52.159,53.74 42.62,59.723 42.342,59.276 				"/>
			</g>
			<g>
				<polygon fill="#1A1A1A" stroke="#1A1A1A" stroke-width="0.4156" stroke-miterlimit="10" points="51.323,30.886 51.323,19.34 
					51.852,19.34 51.852,30.582 61.704,36.27 61.442,36.726 51.323,30.886 				"/>
			</g>
			<g>
				<polygon fill="#1A1A1A" stroke="#1A1A1A" stroke-width="0.4156" stroke-miterlimit="10" points="56.162,27.98 56.162,16.568 
					56.691,16.568 56.691,27.678 66.458,33.366 66.192,33.821 56.162,27.98 				"/>
			</g>
			<g>
				<polygon fill="#1A1A1A" stroke="#1A1A1A" stroke-width="0.4156" stroke-miterlimit="10" points="61.074,56.763 61.074,42.481 
					65.561,39.609 65.561,39.609 65.847,40.055 61.603,42.771 61.603,56.763 61.074,56.763 				"/>
			</g>
			<g>
				<polygon fill="#1A1A1A" stroke="#1A1A1A" stroke-width="0.4156" stroke-miterlimit="10" points="13.516,14.515 10.648,12.942 
					10.902,12.479 13.769,14.051 18.041,16.393 30.638,8.5 30.918,8.944 18.058,17.006 13.516,14.515 				"/>
			</g>
			<g>
				<polygon fill="#1A1A1A" stroke="#1A1A1A" stroke-width="0.4156" stroke-miterlimit="10" points="34.566,9.472 34.849,9.026 
					46.502,16.391 53.754,12.073 54.022,12.528 46.493,17.01 34.566,9.472 				"/>
			</g>
		</g>
	</g>
</g>
</svg>
