<?xml version="1.0" encoding="utf-8"?>
<!-- Generator: Adobe Illustrator 16.0.2, SVG Export Plug-In . SVG Version: 6.00 Build 0)  -->
<!DOCTYPE svg PUBLIC "-//W3C//DTD SVG 1.1//EN" "http://www.w3.org/Graphics/SVG/1.1/DTD/svg11.dtd">
<svg version="1.1" id="Layer_1" xmlns="http://www.w3.org/2000/svg" xmlns:xlink="http://www.w3.org/1999/xlink" x="0px" y="0px"
	 width="64px" height="64px" viewBox="0 0 64 64" enable-background="new 0 0 64 64" xml:space="preserve">
<g>
	<g>
		<g>
			<defs>
				<circle id="SVGID_1_" cx="31.751" cy="31.775" r="31.224"/>
			</defs>
			<clipPath id="SVGID_2_">
				<use xlink:href="#SVGID_1_"  overflow="visible"/>
			</clipPath>
			<g clip-path="url(#SVGID_2_)">
				<g>
					<polygon fill="#339944" stroke="#339944" stroke-miterlimit="10" points="55.359,53.861 55.444,34.971 36.517,24.075 
						27.345,29.248 27.087,28.793 36.521,23.472 55.969,34.669 55.881,53.863 					"/>
				</g>
				<g>
					<polygon fill="#339944" stroke="#339944" stroke-miterlimit="10" points="41.489,43.389 41.489,32.298 31.677,26.644 
						31.938,26.19 42.014,31.995 42.014,43.389 					"/>
				</g>
				<g>
					<polygon fill="#339944" stroke="#339944" stroke-miterlimit="10" points="-1.139,41.473 -0.884,41.018 18.026,51.616 
						36.838,40.602 36.838,29.545 37.361,29.545 37.361,40.902 18.032,52.217 					"/>
				</g>
				<g>
					<polygon fill="#339944" stroke="#339944" stroke-miterlimit="10" points="26.955,35.171 26.955,23.622 36.736,17.967 
						36.997,18.419 27.477,23.925 27.477,35.171 					"/>
				</g>
				<g>
					<polygon fill="#339944" stroke="#339944" stroke-miterlimit="10" points="-1.755,24.233 -1.493,23.779 7.794,29.167 
						31.866,14.866 55.938,28.819 65.442,23.232 65.442,23.232 65.708,23.683 55.939,29.426 31.869,15.472 7.797,29.775 					"/>
				</g>
				<g>
					<polygon fill="#339944" stroke="#339944" stroke-miterlimit="10" points="22.418,65.898 22.418,55.023 46.025,40.488 
						46.025,12.117 55.799,5.877 56.08,6.319 46.548,12.403 46.548,40.782 22.941,55.318 22.941,65.898 22.943,65.898 					"/>
				</g>
				<g>
					<path fill="#339944" stroke="#339944" stroke-miterlimit="10" d="M22.816,60.857L22.816,60.857L22.816,60.857L22.816,60.857
						L22.816,60.857z M22.545,60.412l9.315-5.662l10.019,5.549l-0.253,0.457l-9.751-5.4l-9.058,5.502L22.545,60.412L22.545,60.412z"
						/>
				</g>
				<g>
					<polygon fill="#339944" stroke="#339944" stroke-miterlimit="10" points="15.916,69.686 31.86,60.102 46.41,68.064 
						49.203,69.594 48.952,70.055 46.158,68.525 31.874,60.705 16.186,70.133 					"/>
				</g>
				<g>
					<polygon fill="#339944" stroke="#339944" stroke-miterlimit="10" points="46.257,68.541 46.257,57.586 55.563,51.579 
						55.563,51.579 55.847,52.018 46.781,57.873 46.781,68.541 					"/>
				</g>
				<g>
					<polygon fill="#339944" stroke="#339944" stroke-miterlimit="10" points="41.489,65.752 41.489,55.201 17.301,40.666 
						17.301,12.181 1.853,3.418 2.11,2.963 17.826,11.876 17.826,40.37 42.014,54.908 42.014,65.752 					"/>
				</g>
				<g>
					<polygon fill="#339944" stroke="#339944" stroke-miterlimit="10" points="17.43,35.163 17.698,34.713 27.103,40.331 
						37.088,34.709 37.344,35.164 27.095,40.939 					"/>
				</g>
				<g>
					<polygon fill="#339944" stroke="#339944" stroke-miterlimit="10" points="22.128,32.414 22.128,9.556 38.974,-0.816 
						39.247,-0.37 22.651,9.849 22.651,32.111 32.23,37.604 31.971,38.057 					"/>
				</g>
				<g>
					<polygon fill="#339944" stroke="#339944" stroke-miterlimit="10" points="41.605,20.976 41.605,9.792 24.567,-0.448 
						24.836,-0.895 42.13,9.496 42.13,20.976 42.13,20.976 					"/>
				</g>
				<g>
					<path fill="#339944" stroke="#339944" stroke-miterlimit="10" d="M22.466,15.393L22.466,15.393L22.466,15.393L22.466,15.393
						L22.466,15.393z M22.197,14.945l9.548-5.777l10.134,5.655l-0.255,0.456l-9.868-5.506l-9.289,5.62L22.197,14.945L22.197,14.945z
						"/>
				</g>
				<g>
					<polygon fill="#339944" stroke="#339944" stroke-miterlimit="10" points="37.081,46.561 37.352,46.111 46.405,51.609 
						62.808,41.895 63.075,42.346 46.401,52.219 					"/>
				</g>
				<g>
					<polygon fill="#339944" stroke="#339944" stroke-miterlimit="10" points="7.766,56.914 7.766,34.9 17.316,29.363 
						17.579,29.813 8.29,35.202 8.29,56.914 					"/>
				</g>
				<g>
					<polygon fill="#339944" stroke="#339944" stroke-miterlimit="10" points="12.418,43.464 12.418,32.357 12.941,32.357 
						12.941,43.157 23.013,48.818 23.013,48.818 22.756,49.271 					"/>
				</g>
				<g>
					<polygon fill="#339944" stroke="#339944" stroke-miterlimit="10" points="17.418,68.863 17.418,57.645 3.057,49.188 
						3.057,49.188 3.323,48.736 17.942,57.348 17.942,68.863 					"/>
				</g>
				<g>
					<polygon fill="#339944" stroke="#339944" stroke-miterlimit="10" points="3.114,43.618 3.114,32.648 -9.016,25.826 
						-8.76,25.369 3.639,32.342 3.639,43.618 					"/>
				</g>
				<g>
					<polygon fill="#339944" stroke="#339944" stroke-miterlimit="10" points="2.886,26.46 12.302,20.374 12.302,9.211 
						12.825,9.211 12.825,20.66 3.17,26.9 3.17,26.9 					"/>
				</g>
				<g>
					<polygon fill="#339944" stroke="#339944" stroke-miterlimit="10" points="-8.856,27.972 7.535,17.697 7.535,1.679 8.058,1.679 
						8.058,17.988 -8.578,28.414 					"/>
				</g>
				<g>
					<polygon fill="#339944" stroke="#339944" stroke-miterlimit="10" points="41.643,48.883 50.852,43.105 50.91,32.319 
						51.432,32.322 51.375,43.396 41.919,49.326 					"/>
				</g>
				<g>
					<polygon fill="#339944" stroke="#339944" stroke-miterlimit="10" points="50.545,20.742 50.545,9.298 51.069,9.298 
						51.069,20.44 60.836,26.078 60.577,26.53 					"/>
				</g>
				<g>
					<polygon fill="#339944" stroke="#339944" stroke-miterlimit="10" points="55.342,17.862 55.342,6.549 55.867,6.549 
						55.867,17.562 65.547,23.199 65.285,23.651 					"/>
				</g>
				<g>
					<polygon fill="#339944" stroke="#339944" stroke-miterlimit="10" points="60.212,46.393 60.212,32.236 64.659,29.389 
						64.659,29.389 64.942,29.83 60.735,32.521 60.735,46.393 					"/>
				</g>
				<g>
					<polygon fill="#339944" stroke="#339944" stroke-miterlimit="10" points="13.07,4.514 10.228,2.956 10.479,2.497 13.322,4.054 
						17.555,6.376 30.042,-1.449 30.32,-1.008 17.573,6.983 					"/>
				</g>
				<g>
					<polygon fill="#339944" stroke="#339944" stroke-miterlimit="10" points="33.936,-0.484 34.215,-0.927 45.767,6.374 
						52.955,2.094 53.222,2.544 45.758,6.987 					"/>
				</g>
			</g>
		</g>
	</g>
</g>
</svg>
