<?xml version="1.0" encoding="utf-8"?>
<!-- Generator: Adobe Illustrator 16.0.2, SVG Export Plug-In . SVG Version: 6.00 Build 0)  -->
<!DOCTYPE svg PUBLIC "-//W3C//DTD SVG 1.1//EN" "http://www.w3.org/Graphics/SVG/1.1/DTD/svg11.dtd">
<svg version="1.1" id="Layer_1" xmlns="http://www.w3.org/2000/svg" xmlns:xlink="http://www.w3.org/1999/xlink" x="0px" y="0px"
	 width="64px" height="64px" viewBox="0 10 64 64" enable-background="new 0 10 64 64" xml:space="preserve">
<g>
	<g>
		<defs>
			<circle id="SVGID_1_" cx="32.361" cy="42.018" r="31.5"/>
		</defs>
		<clipPath id="SVGID_2_">
			<use xlink:href="#SVGID_1_"  overflow="visible"/>
		</clipPath>
		<g clip-path="url(#SVGID_2_)">
			<g>
				<polygon fill="#F2F2F2" stroke="#F2F2F2" stroke-miterlimit="10" points="56.179,64.299 56.265,45.241 37.17,34.248 
					27.916,39.467 27.657,39.008 37.174,33.641 56.793,44.937 56.706,64.303 56.179,64.299 				"/>
			</g>
			<g>
				<polygon fill="#F2F2F2" stroke="#F2F2F2" stroke-miterlimit="10" points="42.186,53.733 42.186,42.544 32.287,36.841 
					32.551,36.383 42.716,42.239 42.716,53.733 42.186,53.733 				"/>
			</g>
			<g>
				<polygon fill="#F2F2F2" stroke="#F2F2F2" stroke-miterlimit="10" points="-0.819,51.799 -0.562,51.342 18.516,62.035 
					37.494,50.923 37.494,39.768 38.021,39.768 38.021,51.225 18.521,62.64 -0.819,51.799 				"/>
			</g>
			<g>
				<polygon fill="#F2F2F2" stroke="#F2F2F2" stroke-miterlimit="10" points="27.522,45.442 27.522,33.792 37.392,28.086 
					37.654,28.542 28.051,34.098 28.051,45.442 27.522,45.442 				"/>
			</g>
			<g>
				<polygon fill="#F2F2F2" stroke="#F2F2F2" stroke-miterlimit="10" points="-1.441,34.408 -1.176,33.951 8.193,39.386 
					32.479,24.958 56.764,39.035 66.351,33.398 66.351,33.398 66.619,33.854 56.764,39.647 32.48,25.569 8.195,39.999 
					-1.441,34.408 				"/>
			</g>
			<g>
				<polygon fill="#F2F2F2" stroke="#F2F2F2" stroke-miterlimit="10" points="22.946,76.443 22.946,65.472 46.764,50.808 
					46.764,22.185 56.623,15.89 56.906,16.335 47.291,22.474 47.291,51.104 23.475,65.769 23.475,76.443 23.476,76.443 
					22.946,76.443 				"/>
			</g>
			<g>
				<path fill="#F2F2F2" stroke="#F2F2F2" stroke-miterlimit="10" d="M23.348,71.358L23.348,71.358L23.348,71.358L23.348,71.358
					L23.348,71.358z M23.074,70.908l9.398-5.711l10.107,5.597l-0.256,0.461l-9.838-5.448l-9.139,5.552L23.074,70.908L23.074,70.908z
					"/>
			</g>
			<g>
				<polygon fill="#F2F2F2" stroke="#F2F2F2" stroke-miterlimit="10" points="16.387,80.264 32.473,70.595 47.15,78.629 
					49.969,80.171 49.715,80.636 46.896,79.095 32.486,71.204 16.658,80.715 16.387,80.264 				"/>
			</g>
			<g>
				<polygon fill="#F2F2F2" stroke="#F2F2F2" stroke-miterlimit="10" points="46.997,79.11 46.997,68.058 56.385,61.996 
					56.385,61.996 56.672,62.439 47.525,68.347 47.525,79.11 46.997,79.11 				"/>
			</g>
			<g>
				<polygon fill="#F2F2F2" stroke="#F2F2F2" stroke-miterlimit="10" points="42.186,76.295 42.186,65.651 17.784,50.987 
					17.784,22.25 2.199,13.41 2.459,12.95 18.313,21.942 18.313,50.688 42.716,65.355 42.716,76.295 42.186,76.295 				"/>
			</g>
			<g>
				<polygon fill="#F2F2F2" stroke="#F2F2F2" stroke-miterlimit="10" points="17.914,45.435 18.186,44.98 27.673,50.649 
					37.746,44.976 38.004,45.436 27.665,51.262 17.914,45.435 				"/>
			</g>
			<g>
				<polygon fill="#F2F2F2" stroke="#F2F2F2" stroke-miterlimit="10" points="22.654,42.662 22.654,19.602 39.648,9.137 
					39.925,9.588 23.182,19.896 23.182,42.356 32.846,47.897 32.584,48.354 22.654,42.662 				"/>
			</g>
			<g>
				<polygon fill="#F2F2F2" stroke="#F2F2F2" stroke-miterlimit="10" points="42.304,31.122 42.304,19.84 25.114,9.509 
					25.386,9.058 42.832,19.541 42.832,31.122 42.832,31.122 42.304,31.122 				"/>
			</g>
			<g>
				<path fill="#F2F2F2" stroke="#F2F2F2" stroke-miterlimit="10" d="M22.995,25.489L22.995,25.489L22.995,25.489L22.995,25.489
					L22.995,25.489z M22.723,25.039l9.633-5.829l10.225,5.706l-0.258,0.459l-9.955-5.555l-9.371,5.669L22.723,25.039L22.723,25.039z
					"/>
			</g>
			<g>
				<polygon fill="#F2F2F2" stroke="#F2F2F2" stroke-miterlimit="10" points="37.739,56.933 38.012,56.48 47.146,62.027 
					63.693,52.227 63.963,52.681 47.142,62.643 37.739,56.933 				"/>
			</g>
			<g>
				<polygon fill="#F2F2F2" stroke="#F2F2F2" stroke-miterlimit="10" points="8.164,67.379 8.164,45.171 17.799,39.584 
					18.064,40.039 8.693,45.476 8.693,67.379 8.164,67.379 				"/>
			</g>
			<g>
				<polygon fill="#F2F2F2" stroke="#F2F2F2" stroke-miterlimit="10" points="12.857,53.81 12.857,42.604 13.385,42.604 
					13.385,53.5 23.547,59.212 23.547,59.212 23.287,59.669 12.857,53.81 				"/>
			</g>
			<g>
				<polygon fill="#F2F2F2" stroke="#F2F2F2" stroke-miterlimit="10" points="17.902,79.434 17.902,68.116 3.414,59.583 
					3.414,59.583 3.683,59.129 18.43,67.817 18.43,79.434 17.902,79.434 				"/>
			</g>
			<g>
				<polygon fill="#F2F2F2" stroke="#F2F2F2" stroke-miterlimit="10" points="3.471,53.966 3.471,42.898 -8.767,36.016 
					-8.508,35.555 4.001,42.59 4.001,53.966 3.471,53.966 				"/>
			</g>
			<g>
				<polygon fill="#F2F2F2" stroke="#F2F2F2" stroke-miterlimit="10" points="3.241,36.655 12.741,30.515 12.741,19.254 
					13.269,19.254 13.269,30.803 3.527,37.099 3.527,37.099 3.241,36.655 				"/>
			</g>
			<g>
				<polygon fill="#F2F2F2" stroke="#F2F2F2" stroke-miterlimit="10" points="-8.604,38.18 7.931,27.814 7.931,11.655 8.458,11.655 
					8.458,28.107 -8.324,38.626 -8.604,38.18 				"/>
			</g>
			<g>
				<polygon fill="#F2F2F2" stroke="#F2F2F2" stroke-miterlimit="10" points="42.342,59.276 51.632,53.448 51.69,42.565 
					52.217,42.57 52.159,53.74 42.62,59.724 42.342,59.276 				"/>
			</g>
			<g>
				<polygon fill="#F2F2F2" stroke="#F2F2F2" stroke-miterlimit="10" points="51.322,30.886 51.322,19.34 51.852,19.34 
					51.852,30.582 61.705,36.27 61.442,36.726 51.322,30.886 				"/>
			</g>
			<g>
				<polygon fill="#F2F2F2" stroke="#F2F2F2" stroke-miterlimit="10" points="56.162,27.98 56.162,16.568 56.691,16.568 
					56.691,27.678 66.457,33.365 66.192,33.821 56.162,27.98 				"/>
			</g>
			<g>
				<polygon fill="#F2F2F2" stroke="#F2F2F2" stroke-miterlimit="10" points="61.074,56.763 61.074,42.482 65.561,39.609 
					65.561,39.609 65.847,40.055 61.603,42.771 61.603,56.763 61.074,56.763 				"/>
			</g>
			<g>
				<polygon fill="#F2F2F2" stroke="#F2F2F2" stroke-miterlimit="10" points="13.516,14.515 10.648,12.942 10.902,12.479 
					13.77,14.051 18.04,16.393 30.638,8.499 30.918,8.944 18.059,17.006 13.516,14.515 				"/>
			</g>
			<g>
				<polygon fill="#F2F2F2" stroke="#F2F2F2" stroke-miterlimit="10" points="34.566,9.472 34.848,9.026 46.502,16.391 
					53.754,12.073 54.023,12.528 46.493,17.01 34.566,9.472 				"/>
			</g>
		</g>
	</g>
</g>
</svg>
